<?xml version="1.0" encoding="UTF-8" standalone="no"?>
<!-- Created with Inkscape (http://www.inkscape.org/) -->

<svg
   xmlns:dc="http://purl.org/dc/elements/1.1/"
   xmlns:cc="http://creativecommons.org/ns#"
   xmlns:rdf="http://www.w3.org/1999/02/22-rdf-syntax-ns#"
   xmlns:svg="http://www.w3.org/2000/svg"
   xmlns="http://www.w3.org/2000/svg"
   xmlns:sodipodi="http://sodipodi.sourceforge.net/DTD/sodipodi-0.dtd"
   xmlns:inkscape="http://www.inkscape.org/namespaces/inkscape"
   width="99.899185"
   height="29.947472"
   id="svg2"
   version="1.1"
   inkscape:version="0.48.2 r9819"
   sodipodi:docname="donate.svg">
  <defs
     id="defs4">
    <filter
       inkscape:collect="always"
       id="filter3914"
       x="-0.098167166"
       width="1.1963342"
       y="-0.32885998"
       height="1.65772"
       color-interpolation-filters="sRGB">
      <feGaussianBlur
         inkscape:collect="always"
         stdDeviation="1.1157019"
         id="feGaussianBlur3916" />
    </filter>
  </defs>
  <sodipodi:namedview
     id="base"
     pagecolor="#ffffff"
     bordercolor="#666666"
     borderopacity="1.0"
     inkscape:pageopacity="0.0"
     inkscape:pageshadow="2"
     inkscape:zoom="7.9195959"
     inkscape:cx="66.587477"
     inkscape:cy="-5.5314327"
     inkscape:document-units="px"
     inkscape:current-layer="layer1"
     showgrid="false"
     showguides="true"
     inkscape:guide-bbox="true"
     inkscape:window-width="1920"
     inkscape:window-height="1017"
     inkscape:window-x="1272"
     inkscape:window-y="-8"
     inkscape:window-maximized="1"
     fit-margin-top="0"
     fit-margin-left="0"
     fit-margin-right="0"
     fit-margin-bottom="0" />
  <metadata
     id="metadata7">
    <rdf:RDF>
      <cc:Work
         rdf:about="">
        <dc:format>image/svg+xml</dc:format>
        <dc:type
           rdf:resource="http://purl.org/dc/dcmitype/StillImage" />
        <dc:title></dc:title>
      </cc:Work>
    </rdf:RDF>
  </metadata>
  <g
     inkscape:label="Layer 1"
     inkscape:groupmode="layer"
     id="layer1"
     transform="translate(0.08857948,-0.03552544)">
    <rect
       style="fill:#ffcc00;fill-opacity:1;fill-rule:nonzero;stroke:none"
       id="rect3870"
       width="96.851395"
       height="29.947472"
       x="2.0465124"
       y="0.035525437"
       ry="14.973736" />
    <rect
       style="fill:#ffdf63;fill-opacity:1;fill-rule:nonzero;stroke:none;filter:url(#filter3914)"
       id="rect3876"
       width="27.276785"
       height="8.1423244"
       x="110.49107"
       y="470.13004"
       ry="4.0711622"
       transform="matrix(3.0613727,0,0,2.1238879,-330.14555,-992.21554)" />
    <path
       inkscape:connector-curvature="0"
       id="path3929"
       style="font-size:20.57189369px;font-style:normal;font-weight:normal;line-height:125%;letter-spacing:0px;word-spacing:0px;fill:#aa4400;fill-opacity:1;stroke:none;font-family:Sans"
       d="m 19.122097,21.868839 0,-14.7257791 5.072659,0 c 1.145108,1.47e-5 2.01901,0.070329 2.621711,0.2109423 0.843759,0.1942151 1.563641,0.5457852 2.159647,1.0547113 0.776791,0.6562777 1.357719,1.4950235 1.742785,2.5162395 0.38504,1.021239 0.577567,2.188117 0.57758,3.500638 -1.3e-5,1.118335 -0.130597,2.109428 -0.39175,2.973281 -0.261179,0.863863 -0.596008,1.578722 -1.004487,2.14458 -0.408503,0.565863 -0.855499,1.011185 -1.34099,1.335968 -0.485512,0.324784 -1.071462,0.570883 -1.757852,0.738298 -0.686408,0.167414 -1.47493,0.251121 -2.365567,0.251121 z m 1.948705,-1.737762 3.144044,0 c 0.970996,10e-7 1.732732,-0.0904 2.285208,-0.271212 0.552458,-0.180805 0.992758,-0.435275 1.3209,-0.76341 0.462054,-0.462061 0.821994,-1.083168 1.079824,-1.863323 0.257807,-0.780146 0.386716,-1.726037 0.386727,-2.837676 -1.1e-5,-1.540204 -0.252807,-2.723824 -0.758387,-3.550862 C 28.023515,10.017579 27.409105,9.4634373 26.685884,9.1821685 26.163542,8.981284 25.323122,8.8808354 24.164622,8.8808224 l -3.09382,0 z" />
    <path
       inkscape:connector-curvature="0"
       id="path3931"
       style="font-size:20.57189369px;font-style:normal;font-weight:normal;line-height:125%;letter-spacing:0px;word-spacing:0px;fill:#aa4400;fill-opacity:1;stroke:none;font-family:Sans"
       d="m 33.084466,16.535013 c -10e-7,-1.975483 0.549118,-3.438685 1.647359,-4.389608 0.917428,-0.790186 2.035756,-1.185284 3.354986,-1.185295 1.466544,1.1e-5 2.665231,0.480491 3.596064,1.441439 0.930814,0.960968 1.396226,2.288564 1.396237,3.982791 -1.1e-5,1.372803 -0.205931,2.452626 -0.61776,3.239471 -0.411849,0.786849 -1.011192,1.397912 -1.798032,1.833189 -0.786855,0.435277 -1.645691,0.652916 -2.576509,0.652916 -1.493341,0 -2.700399,-0.478805 -3.621175,-1.436416 -0.920781,-0.957609 -1.381171,-2.337103 -1.38117,-4.138487 z m 1.858301,0 c -3e-6,1.366107 0.297995,2.389008 0.893993,3.068708 0.595992,0.679705 1.346008,1.019556 2.250051,1.019554 0.897335,2e-6 1.644003,-0.341524 2.240006,-1.024576 0.595987,-0.683049 0.893985,-1.724366 0.893994,-3.123955 -9e-6,-1.319219 -0.299681,-2.318683 -0.899016,-2.998394 -0.599351,-0.679693 -1.344345,-1.019544 -2.234984,-1.019554 -0.904043,10e-6 -1.654059,0.338186 -2.250051,1.014532 -0.595998,0.676362 -0.893996,1.69759 -0.893993,3.063685 z" />
    <path
       inkscape:connector-curvature="0"
       id="path3933"
       style="font-size:20.57189369px;font-style:normal;font-weight:normal;line-height:125%;letter-spacing:0px;word-spacing:0px;fill:#aa4400;fill-opacity:1;stroke:none;font-family:Sans"
       d="m 45.208623,21.868839 0,-10.667652 1.627269,0 0,1.516776 c 0.783496,-1.171891 1.915217,-1.757842 3.395166,-1.757853 0.642865,1.1e-5 1.233837,0.115527 1.77292,0.346548 0.539066,0.231043 0.942534,0.534063 1.210407,0.909061 0.267853,0.375018 0.455357,0.82034 0.562512,1.335968 0.06696,0.334837 0.100439,0.920787 0.100449,1.757852 l 0,6.5593 -1.808077,0 0,-6.488986 c -8e-6,-0.736616 -0.07032,-1.287409 -0.210942,-1.652381 C 51.717691,13.362517 51.468244,13.071216 51.109984,12.853568 50.75171,12.635939 50.3315,12.52712 49.849353,12.52711 c -0.770112,10e-6 -1.434747,0.244434 -1.993907,0.733276 -0.559167,0.488858 -0.838749,1.416334 -0.838746,2.782429 l 0,5.826024 z" />
    <path
       inkscape:connector-curvature="0"
       id="path3935"
       style="font-size:20.57189369px;font-style:normal;font-weight:normal;line-height:125%;letter-spacing:0px;word-spacing:0px;fill:#aa4400;fill-opacity:1;stroke:none;font-family:Sans"
       d="m 63.620871,20.552961 c -0.669666,0.56921 -1.314211,0.971005 -1.933638,1.205385 -0.619439,0.23438 -1.284074,0.35157 -1.993906,0.35157 -1.171905,0 -2.072594,-0.286279 -2.70207,-0.858836 -0.62948,-0.572557 -0.944219,-1.304157 -0.944218,-2.194804 -10e-7,-0.52233 0.118863,-0.999461 0.356593,-1.431394 0.237727,-0.431925 0.549118,-0.778473 0.934173,-1.039644 0.385051,-0.261161 0.818654,-0.45871 1.30081,-0.592648 0.354915,-0.09375 0.890641,-0.18415 1.60718,-0.271211 1.459848,-0.174105 2.534648,-0.381699 3.224403,-0.622782 0.0067,-0.247767 0.01004,-0.405136 0.01004,-0.472109 -8e-6,-0.736616 -0.170771,-1.2556 -0.512289,-1.556955 -0.462071,-0.408482 -1.14847,-0.612727 -2.059198,-0.612737 -0.85047,10e-6 -1.478274,0.149008 -1.883413,0.446997 -0.405147,0.298006 -0.704818,0.825361 -0.899016,1.582067 L 56.35843,14.244783 c 0.160717,-0.756705 0.425231,-1.367768 0.793545,-1.833189 0.368309,-0.465402 0.900687,-0.823669 1.597134,-1.074801 0.69644,-0.251111 1.503377,-0.376672 2.420814,-0.376683 0.910728,1.1e-5 1.650699,0.107157 2.219916,0.321436 0.569201,0.214301 0.987736,0.483838 1.255609,0.808612 0.267853,0.324794 0.455357,0.734959 0.562512,1.230497 0.06026,0.308051 0.09039,0.863866 0.0904,1.667448 l 0,2.410769 c -1e-5,1.680844 0.03849,2.743926 0.115516,3.189246 0.077,0.445324 0.229348,0.87223 0.457042,1.280721 l -1.888436,0 c -0.187513,-0.375008 -0.308051,-0.813633 -0.361615,-1.315878 z m -0.150673,-4.038037 c -0.656272,0.267868 -1.640669,0.495551 -2.953192,0.683051 -0.743325,0.10715 -1.269006,0.227688 -1.577045,0.361615 -0.308046,0.133936 -0.545774,0.329811 -0.713185,0.587625 -0.167418,0.257822 -0.251125,0.5441 -0.251122,0.858836 -3e-6,0.482156 0.182479,0.883951 0.547445,1.205385 0.36496,0.321437 0.899012,0.482155 1.602157,0.482153 0.696439,2e-6 1.315872,-0.152345 1.858301,-0.457041 0.542416,-0.304693 0.940862,-0.721554 1.19534,-1.250586 0.194192,-0.408489 0.291293,-1.01118 0.291301,-1.808077 z" />
    <path
       inkscape:connector-curvature="0"
       id="path3937"
       style="font-size:20.57189369px;font-style:normal;font-weight:normal;line-height:125%;letter-spacing:0px;word-spacing:0px;fill:#aa4400;fill-opacity:1;stroke:none;font-family:Sans"
       d="m 72.058563,20.251615 0.261166,1.597135 c -0.508945,0.107145 -0.964312,0.160717 -1.366102,0.160717 -0.656268,0 -1.165208,-0.103797 -1.52682,-0.311391 -0.361618,-0.207593 -0.616088,-0.480478 -0.76341,-0.818656 -0.147327,-0.338176 -0.220989,-1.049687 -0.220987,-2.134535 l 0,-6.137416 -1.325923,0 0,-1.406282 1.325923,0 0,-2.6418004 1.798031,-1.084846 0,3.7266464 1.818122,0 0,1.406282 -1.818122,0 0,6.237864 c -3e-6,0.51564 0.0318,0.84712 0.09543,0.994443 0.06361,0.147326 0.16741,0.264516 0.31139,0.35157 0.143973,0.08706 0.349893,0.130585 0.61776,0.130583 0.200893,2e-6 0.465407,-0.02344 0.793545,-0.07031 z" />
    <path
       inkscape:connector-curvature="0"
       id="path3939"
       style="font-size:20.57189369px;font-style:normal;font-weight:normal;line-height:125%;letter-spacing:0px;word-spacing:0px;fill:#aa4400;fill-opacity:1;stroke:none;font-family:Sans"
       d="m 81.119036,18.433494 1.868345,0.231032 c -0.294659,1.091544 -0.84043,1.938661 -1.637313,2.541352 -0.796902,0.602692 -1.814781,0.904038 -3.053641,0.904038 -1.560307,0 -2.797499,-0.480479 -3.711579,-1.441439 -0.914085,-0.960957 -1.371126,-2.308642 -1.371125,-4.04306 -10e-7,-1.794676 0.462063,-3.187563 1.386192,-4.178666 0.924125,-0.991083 2.122812,-1.48663 3.596063,-1.486641 1.426365,1.1e-5 2.591569,0.485513 3.495615,1.456507 0.904028,0.971012 1.356047,2.337113 1.356058,4.098307 -1.1e-5,0.10715 -0.0034,0.267868 -0.01005,0.482153 l -7.955537,0 c 0.06696,1.171906 0.398443,2.069246 0.994442,2.692025 0.595991,0.622784 1.339311,0.934175 2.229961,0.934173 0.662955,2e-6 1.228815,-0.174109 1.697583,-0.522333 0.468753,-0.34822 0.840412,-0.904035 1.114981,-1.667448 z m -5.936519,-2.923057 5.956608,0 c -0.08037,-0.897335 -0.308051,-1.570341 -0.683051,-2.019019 -0.575913,-0.696436 -1.322581,-1.044657 -2.240006,-1.044667 -0.830381,10e-6 -1.528498,0.277917 -2.094355,0.833724 -0.565864,0.555825 -0.878929,1.299144 -0.939196,2.229962 z" />
  </g>
</svg>
